<svg width="800" height="600" viewBox="0 0 800 600" xmlns="http://www.w3.org/2000/svg">
  <rect width="800" height="600" fill="#05060a"/>
  <g stroke="rgba(255,255,255,0.08)" stroke-width="0.5">
    <line x1="0" y1="0" x2="0" y2="600"/>
    <line x1="80" y1="0" x2="80" y2="600"/>
    <line x1="160" y1="0" x2="160" y2="600"/>
    <line x1="240" y1="0" x2="240" y2="600"/>
    <line x1="320" y1="0" x2="320" y2="600"/>
    <line x1="400" y1="0" x2="400" y2="600"/>
    <line x1="480" y1="0" x2="480" y2="600"/>
    <line x1="560" y1="0" x2="560" y2="600"/>
    <line x1="640" y1="0" x2="640" y2="600"/>
    <line x1="720" y1="0" x2="720" y2="600"/>
    <line x1="800" y1="0" x2="800" y2="600"/>
    <line x1="0" y1="0" x2="800" y2="0"/>
    <line x1="0" y1="60" x2="800" y2="60"/>
    <line x1="0" y1="120" x2="800" y2="120"/>
    <line x1="0" y1="180" x2="800" y2="180"/>
    <line x1="0" y1="240" x2="800" y2="240"/>
    <line x1="0" y1="300" x2="800" y2="300"/>
    <line x1="0" y1="360" x2="800" y2="360"/>
    <line x1="0" y1="420" x2="800" y2="420"/>
    <line x1="0" y1="480" x2="800" y2="480"/>
    <line x1="0" y1="540" x2="800" y2="540"/>
    <line x1="0" y1="600" x2="800" y2="600"/>
  </g>
</svg>
